<svg viewBox="0 0 64 74" xmlns="http://www.w3.org/2000/svg" role="img" aria-label="Tais Eduarda Psicóloga">
  <g stroke="#9C7E3E" stroke-width="1.6" stroke-linecap="round" fill="none">
    <path d="M32 21 C30 13 26 10 22.5 10"/>
    <path d="M32 21 C34 13 38 10 41.5 10"/>
    <line x1="32" y1="21" x2="32" y2="40"/>
  </g>
  <path fill="#3E544A" d="M32 23 C20 7 6 11 9 23 C11 32 24 32 32 25 Z"/>
  <path fill="#3E544A" opacity=".82" d="M32 27 C22 29 12 37 18 44 C23 48 30 39 32 29 Z"/>
  <path fill="#C2A05B" d="M32 23 C44 7 58 11 55 23 C53 32 40 32 32 25 Z"/>
  <path fill="#C2A05B" opacity=".82" d="M32 27 C42 29 52 37 46 44 C41 48 34 39 32 29 Z"/>
  <text x="32" y="69" text-anchor="middle" font-family="'Cormorant Garamond',Georgia,serif" font-size="22" font-weight="600" letter-spacing="-2" fill="#2B2A26">TE</text>
</svg>
